# xmcd CD database file
#
# Track frame offsets:
#	150
#	23999
#	77337
#	137987
#	147870
#	164188
#	235992
#
# Disc length: 4346 seconds
#
# Revision: 0
# Processed by: cddbd v1.5.2PL0 Copyright (c) Steve Scherf et al.
# Submitted via: CDex 1.51
#
DISCID=5d10f807
DTITLE=John Mayer - Indo Jazz fusions
DYEAR=2008
DGENRE=Jazz
TTITLE0=Etudes - Intro and Rondo
TTITLE1=Etudes - Capriccio
TTITLE2=Etudes - Serenade
TTITLE3=Etudes - Toccata
TTITLE4=Etudes - Saraband
TTITLE5=Radha Krishna Act 1
TTITLE6=Radha Krishna Act 2
EXTD=YEAR: 2008
EXTT0=
EXTT1=
EXTT2=
EXTT3=
EXTT4=
EXTT5=
EXTT6=
PLAYORDER=
